/* XPM */
static char * logo_50_xpm[] = {
"50 50 28 1",
" 	c None",
".	c #98BFFF",
"+	c #99BFFF",
"@	c #98BEFF",
"#	c #7EADFF",
"$	c #88B4FF",
"%	c #96BDFF",
"&	c #90B9FF",
"*	c #73A8FF",
"=	c #64A1FF",
"-	c #7FAEFF",
";	c #8DB7FF",
">	c #95BDFF",
",	c #7CADFF",
"'	c #64A0FF",
")	c #63A0FF",
"!	c #82AFFF",
"~	c #91B9FF",
"{	c #84B2FF",
"]	c #67A2FF",
"^	c #85B2FF",
"/	c #94BCFF",
"(	c #8CB7FF",
"_	c #6DA5FF",
":	c #8AB5FF",
"<	c #91BAFF",
"[	c #75A9FF",
"}	c #7BACFF",
"                                                  ",
"                                                  ",
"                                                  ",
"                      .++++@                      ",
"                    @++++++++                     ",
"                   +++++++++++.                   ",
"                 .++++++++++++++.                 ",
"               @++++++++++++++++++@               ",
"              ++++++++++++++++++++++              ",
"            +++++++++++++++++++++++++.            ",
"          .++++++++++++++++++++++++++++@          ",
"        @++++++++++++++++++++++++++++++++         ",
"       +++++++++++++++++..+++++++++++++++++       ",
"      ++++++++++++++++.    ++++++++++++++++.      ",
"     #$%+++++++++++++        +++++++++++++&*=     ",
"     ##-;@+++++++++           @+++++++++>,')'     ",
"     ####!~++++++@              .+++++@{]))))     ",
"     ######^/++.                  +++(_))))))     ",
"     ########:%                    <[))))))))     ",
"     #########                      )))))))))     ",
"     #########                      )))))))))     ",
"     #########                      )))))))))     ",
"     #########                      )))))))))     ",
"     #########                      )))))))))     ",
"     #########                      )))))))))     ",
"     #########                      )))))))))     ",
"     #########                      )))))))))     ",
"     #########                      )))))))))     ",
"     #########                      )))))))))     ",
"     #########                      )))))))))     ",
"     #########                      )))))))))     ",
"     ##########                    ')))))))))     ",
"     ###########                  )))))))))))     ",
"     #############              '))))))))))))     ",
"     ##############           ')))))))))))))'     ",
"     ################        )))))))))))))))'     ",
"      #################    '))))))))))))))))      ",
"       #################}')))))))))))))))))       ",
"        ################}))))))))))))))))         ",
"          ##############})))))))))))))))          ",
"            ############}))))))))))))))))         ",
"              ##########}))))))))))))))))))       ",
"               #########}))))))))))))))))))))     ",
"                 #######})))))))))))))))))))))    ",
"                   #####})))))))))))))))))))))    ",
"                    ####}))))   )))))))))))))     ",
"                      ##}))'      )))))))))       ",
"                                   )))))))        ",
"                                      )           ",
"                                                  "};
